<svg width="63" height="29" viewBox="0 0 63 29" fill="none" xmlns="http://www.w3.org/2000/svg">
<g clip-path="url(#clip0_199_11)">
<path d="M59.0669 28.56C58.1602 28.56 57.3869 28.24 56.7469 27.6C56.1336 26.9333 55.8269 26.16 55.8269 25.28C55.8269 24.4267 56.1469 23.6667 56.7869 23C57.4269 22.3333 58.1869 22 59.0669 22C59.9469 22 60.7202 22.32 61.3869 22.96C62.0536 23.6 62.3869 24.3733 62.3869 25.28C62.3869 26.1867 62.0669 26.96 61.4269 27.6C60.7869 28.24 60.0002 28.56 59.0669 28.56Z" fill="white"/>
<path d="M49.1067 11.36V22.76C49.1067 24.0667 49.2134 25 49.4267 25.56C49.6667 26.0933 50.2134 26.36 51.0667 26.36C51.5734 26.36 52.16 26.2667 52.8267 26.08V27.64C51.2 28.2533 49.8134 28.56 48.6667 28.56C46.7467 28.56 45.3867 27.9467 44.5867 26.72C43.92 25.7067 43.5867 24.16 43.5867 22.08V11.36H40.8667C40.92 11.12 40.9467 10.88 40.9467 10.64C40.9467 10.4 40.9467 10.2133 40.9467 10.08V9.63999C40.9467 9.50665 40.9467 9.37332 40.9467 9.23999C40.8934 9.05332 40.8667 8.90665 40.8667 8.79999H43.5867V4.27999C44.2534 4.01332 45.12 3.63999 46.1867 3.15999C47.2534 2.67999 48.2267 2.22665 49.1067 1.79999V8.79999H52.5067C52.48 9.03999 52.4534 9.29332 52.4267 9.55999C52.4267 9.79999 52.4267 9.97332 52.4267 10.08C52.4267 10.2933 52.4267 10.4933 52.4267 10.68C52.48 11 52.5067 11.2267 52.5067 11.36H49.1067Z" fill="white"/>
<path d="M27.5465 16.6H33.4665C33.4665 14.9467 33.3331 13.6267 33.0665 12.64C32.6398 11.04 31.8931 10.24 30.8265 10.24C29.5465 10.24 28.6398 11.0267 28.1065 12.6C27.7331 13.6933 27.5465 15.0267 27.5465 16.6ZM38.9865 18.52H27.5465C27.5465 20.84 27.9331 22.6 28.7065 23.8C29.6131 25.24 31.0798 25.96 33.1065 25.96C33.9331 25.96 34.7465 25.8 35.5465 25.48C36.3465 25.16 37.0931 24.72 37.7865 24.16L38.2665 24.52L37.3865 26.76C35.6798 27.96 33.7731 28.56 31.6665 28.56C28.3865 28.56 25.8931 27.64 24.1865 25.8C22.4798 23.96 21.6265 21.3733 21.6265 18.04C21.6265 15.1867 22.4398 12.88 24.0665 11.12C25.7198 9.33334 27.9598 8.44 30.7865 8.44C33.7465 8.44 35.8931 9.4 37.2265 11.32C38.3998 13 38.9865 15.4 38.9865 18.52Z" fill="white"/>
<path d="M6.87988 16.16V28.2C6.42655 28.2 6.05322 28.1867 5.75988 28.16C4.61322 28.0533 3.98655 28 3.87988 28C3.42655 28 2.83988 28.0267 2.11988 28.08C1.39988 28.16 0.986549 28.2 0.879883 28.2V0.76001H10.7199C16.4265 0.76001 19.2799 3.01334 19.2799 7.52001C19.2799 10.8533 18.1199 13.1867 15.7999 14.52C13.9066 15.6133 10.9332 16.16 6.87988 16.16ZM6.87988 2.92001V13.96C7.46655 13.96 7.91988 13.9467 8.23988 13.92C8.55988 13.8933 8.98655 13.8133 9.51988 13.68C10.7465 13.3333 11.6665 12.64 12.2799 11.6C12.8132 10.6933 13.0799 9.57334 13.0799 8.24001C13.0799 6.69334 12.7199 5.42668 11.9999 4.44001C11.3066 3.42668 10.4265 2.92001 9.35988 2.92001H6.87988Z" fill="white"/>
</g>
<defs>
<clipPath id="clip0_199_11">
<rect width="63" height="29" fill="white"/>
</clipPath>
</defs>
</svg>
